<?xml version="1.0" standalone="no"?>
<!DOCTYPE svg PUBLIC "-//W3C//DTD SVG 20010904//EN"
 "http://www.w3.org/TR/2001/REC-SVG-20010904/DTD/svg10.dtd">
<svg version="1.0" xmlns="http://www.w3.org/2000/svg"
 width="16.000000pt" height="16.000000pt" viewBox="0 0 16.000000 16.000000"
 preserveAspectRatio="xMidYMid meet">
<metadata>
Created by potrace 1.11, written by Peter Selinger 2001-2013
</metadata>
<g transform="translate(0.000000,16.000000) scale(0.001176,-0.001176)"
fill="#000000" stroke="none">
<path d="M3200 6800 l0 -6800 3600 0 3600 0 0 6800 0 6800 -3600 0 -3600 0 0
-6800z m3200 4800 l0 -1200 -1200 0 -1200 0 0 1200 0 1200 1200 0 1200 0 0
-1200z m3200 0 l0 -1200 -1200 0 -1200 0 0 1200 0 1200 1200 0 1200 0 0 -1200z
m-3200 -3200 l0 -1200 -1200 0 -1200 0 0 1200 0 1200 1200 0 1200 0 0 -1200z
m3200 0 l0 -1200 -1200 0 -1200 0 0 1200 0 1200 1200 0 1200 0 0 -1200z
m-3200 -3200 l0 -1200 -1200 0 -1200 0 0 1200 0 1200 1200 0 1200 0 0 -1200z
m3200 0 l0 -1200 -1200 0 -1200 0 0 1200 0 1200 1200 0 1200 0 0 -1200z
m-3200 -3200 l0 -1200 -1200 0 -1200 0 0 1200 0 1200 1200 0 1200 0 0 -1200z
m3200 -160 l0 -1200 -1200 0 -1200 0 0 1200 0 1200 1200 0 1200 0 0 -1200z"/>
</g>
</svg>
