<?xml version="1.0" encoding="UTF-8" standalone="no"?>
<svg width="32px" height="55px" viewBox="0 0 32 55" version="1.1" xmlns="http://www.w3.org/2000/svg" xmlns:xlink="http://www.w3.org/1999/xlink">
    <!-- Generator: Sketch 41 (35326) - http://www.bohemiancoding.com/sketch -->
    <title>sky-marker</title>
    <desc>Created with Sketch.</desc>
    <defs></defs>
    <g id="Page-1" stroke="none" stroke-width="1" fill="none" fill-rule="evenodd">
        <g id="sky-marker" transform="translate(1.000000, 1.000000)">
            <g id="Layer-1">
                <path d="M15.0412591,48.5280804 C13.9303738,43.0753569 11.9720336,38.5375347 9.59991367,34.33209 C7.84040129,31.2126059 5.80209115,28.3332366 3.91613103,25.308023 C3.28656126,24.2982811 2.74323819,23.2312327 2.13828011,22.1833797 C0.928652521,20.087679 -0.0520915186,17.6579377 0.0102290544,14.5061609 C0.0711173066,11.4267047 0.961747908,8.95647547 2.2460465,6.93676181 C4.3583386,3.61484209 7.89650464,0.891232206 12.6438681,0.175472579 C16.5255011,-0.409742206 20.1647564,0.578968309 22.7452739,2.08802318 C24.8541557,3.32120352 26.4873935,4.96845235 27.7286527,6.90979966 C29.0243539,8.9360453 29.9166179,11.3298564 29.9914026,14.4522628 C30.0298005,16.0519768 29.767909,17.5334102 29.3988544,18.762235 C29.0255011,20.0060458 28.4249292,21.0458453 27.8905445,22.1564473 C26.8472771,24.3243566 25.5395403,26.3106014 24.2269346,28.2979936 C20.3174772,34.2180505 16.6481381,40.2553019 15.0412591,48.5280804 Z" id="svg_2" stroke="#000000" stroke-width="2" fill="#4990E2"></path>
                <circle id="svg_4" fill="#000000" cx="15.1160458" cy="13.5830086" r="5.2530659"></circle>
            </g>
        </g>
    </g>
</svg>